<svg xmlns="http://www.w3.org/2000/svg" width="421.767" height="281.567" viewBox="0 0 421.767 281.567">
    <defs>
        <clipPath id="oca0orfhla">
            <path data-name="Rectangle 30" style="fill:none" d="M0 0h421.767v201.482H0z"/>
        </clipPath>
        <clipPath id="xcg3y2tgxb">
            <path data-name="Rectangle 22" style="fill:none" d="M0 0h123.47v29.381H0z"/>
        </clipPath>
    </defs>
    <g data-name="Apple Music Lockup-iPad Mobile">
        <g data-name="Group 110" style="clip-path:url(#oca0orfhla)" transform="translate(0 57.295)">
            <path data-name="Rectangle 34" transform="translate(24.489 10.014)" style="fill:#0044d0" d="M0 0h371.462v68.259H0z"/>
            <path data-name="Rectangle 35" transform="translate(317.679 165.645)" style="fill:#0044d0" d="M0 0h94.855v29.352H0z"/>
            <path data-name="Path 118" d="M418.96 201.363h-3.36v6.211h3.357a3.109 3.109 0 1 0 0-6.211" transform="translate(-67.058 -27.584)" style="fill:#fff"/>
            <path data-name="Path 119" d="M460.07 185.225h-79.447c-10.99 0-19.9 9.32-19.9 20.815s8.911 20.815 19.9 20.815h79.447c10.99 0 19.9-9.32 19.9-20.815s-8.909-20.815-19.9-20.815m-63.182 13.927h-10.964v5.108h9.358v6.175h-9.358v8.265h-7.679v-25.723h18.643zm17 19.552s-1.25-3.271-1.572-4.079c-.607-1.654-1.179-3.455-3.714-3.455h-1.858v7.53h-7.715v-25.723h11.644c6.893 0 10.321 3.97 10.321 8.527a7.013 7.013 0 0 1-4.572 6.983c.964.551 2.179.882 4.143 6.027.215.514 1.608 4.19 1.608 4.19zm28.539 0h-19.175v-25.727H441.9v6.175h-10.969v3.748h8.393v5.733h-8.393v3.859h11.5zm21.5 0h-19.171v-25.727H463.4v6.175h-10.966v3.748h8.393v5.733h-8.393v3.859h11.5z" transform="translate(-58.203 -25.373)" style="fill:#fff"/>
            <path data-name="Path 120" d="M377.827 0H43.941C19.673 0 0 20.578 0 45.961s19.673 45.96 43.941 45.96h333.886c24.268 0 43.94-20.578 43.94-45.961S402.095 0 377.827 0M86.374 48.085a38.14 38.14 0 0 1-1.553 10.751A27.58 27.58 0 0 1 80 68.294a24.274 24.274 0 0 1-8.4 6.692 27.246 27.246 0 0 1-12.252 2.548 26.938 26.938 0 0 1-11.875-2.461 24.542 24.542 0 0 1-8.433-6.563 27.431 27.431 0 0 1-4.991-9.41 37.184 37.184 0 0 1-1.636-11.011V15.7H50.54v35.926a14.75 14.75 0 0 0 .545 4.016A11.377 11.377 0 0 0 52.68 59.1a7.732 7.732 0 0 0 2.727 2.418A8.31 8.31 0 0 0 66.065 59.1a10.9 10.9 0 0 0 1.635-3.458 14.782 14.782 0 0 0 .545-4.016V15.7h18.129zm65.794 28.067h-19.889l-20.9-38v38H94.767V15.7h22.155l18.547 33.68V15.7h16.7zm49.427 0h-41.036V15.7h18.127v45.858H201.6zm61.43-18.308a29.61 29.61 0 0 1-6 10.1 28.466 28.466 0 0 1-9.987 6.995 38.938 38.938 0 0 1-27.819.043 29.037 29.037 0 0 1-9.987-6.866 28.3 28.3 0 0 1-6.042-10.06 36.394 36.394 0 0 1-2.014-12.134 35.171 35.171 0 0 1 2.183-12.522 28.7 28.7 0 0 1 6.294-10.018 29.177 29.177 0 0 1 10.028-6.65 38.373 38.373 0 0 1 26.813 0 29.121 29.121 0 0 1 10.071 6.65 28.765 28.765 0 0 1 6.294 10.018 36.652 36.652 0 0 1 .167 24.44m62.521 8.2a22.651 22.651 0 0 1-4.574 4.879 30.1 30.1 0 0 1-19.848 6.606 35.686 35.686 0 0 1-13.511-2.418 27.971 27.971 0 0 1-16.238-16.624 35.446 35.446 0 0 1-2.14-12.479 35.8 35.8 0 0 1 2.14-12.521 28.977 28.977 0 0 1 6.21-10.061 28.339 28.339 0 0 1 10.028-6.694 35.7 35.7 0 0 1 13.511-2.418 32.22 32.22 0 0 1 10.533 1.555 31.81 31.81 0 0 1 7.679 3.756 25.161 25.161 0 0 1 5.119 4.534 20.98 20.98 0 0 1 2.685 3.887l-13.679 9.413a21.053 21.053 0 0 0-1.427-2.418 12.467 12.467 0 0 0-2.434-2.634 14.886 14.886 0 0 0-3.608-2.159 12.182 12.182 0 0 0-4.868-.907 11.788 11.788 0 0 0-5.621 1.339 12.291 12.291 0 0 0-4.2 3.628 17.542 17.542 0 0 0-2.6 5.31 21.735 21.735 0 0 0-.923 6.391 21.3 21.3 0 0 0 .923 6.347 17.05 17.05 0 0 0 2.6 5.225 11.98 11.98 0 0 0 9.818 4.836 13.025 13.025 0 0 0 5.623-1.08 13.228 13.228 0 0 0 3.693-2.5 12.123 12.123 0 0 0 2.181-2.85q.756-1.424 1.007-2.029l13.848 9.068q-.421.691-1.931 3.022m42.379 10.1-14.683-23.051a25.181 25.181 0 0 1-2.264 1.3q-1.345.693-2.014 1.122v20.637h-18.128V15.7h18.127v21.763a64.52 64.52 0 0 0 6.923-5.268 58.91 58.91 0 0 0 5.622-5.614 49.3 49.3 0 0 0 4.28-5.657 40.985 40.985 0 0 0 2.9-5.224h19.553a64.337 64.337 0 0 1-8.35 14.94 69.089 69.089 0 0 1-13.134 13.386l23.583 32.126z" style="fill:#fff"/>
            <path data-name="Path 121" d="M49.039 165.768h-13.56l-2.848-8.155H15.79L13 165.768H0l15.664-44.6h17.77zm-29.967-18.286h10.4l-5.2-14.654z" transform="translate(0 -16.598)" style="fill:#fff"/>
            <path data-name="Path 122" d="M84.733 121.167a19.621 19.621 0 0 1 6.387 1.019 14.716 14.716 0 0 1 5.21 3.059 14.263 14.263 0 0 1 3.5 5.034 17.651 17.651 0 0 1 1.271 6.945 18.28 18.28 0 0 1-1.241 6.977 14.251 14.251 0 0 1-3.414 5.065 14.406 14.406 0 0 1-5.184 3.09 19.729 19.729 0 0 1-6.547 1.051h-8.438v12.361H62.9v-44.6zM82.1 142.639a5.218 5.218 0 0 0 5.634-5.383 5.479 5.479 0 0 0-1.424-3.674 5.268 5.268 0 0 0-4.21-1.647h-5.82v10.7z" transform="translate(-10.149 -16.598)" style="fill:#fff"/>
            <path data-name="Path 123" d="M133.9 121.167a19.621 19.621 0 0 1 6.387 1.019 14.716 14.716 0 0 1 5.21 3.059 14.263 14.263 0 0 1 3.5 5.034 17.651 17.651 0 0 1 1.271 6.945 18.28 18.28 0 0 1-1.241 6.977 14.251 14.251 0 0 1-3.414 5.065 14.406 14.406 0 0 1-5.184 3.09 19.729 19.729 0 0 1-6.547 1.051h-8.442v12.361h-13.368v-44.6zm-2.636 21.472a5.218 5.218 0 0 0 5.634-5.383 5.479 5.479 0 0 0-1.424-3.674 5.268 5.268 0 0 0-4.21-1.647h-5.82v10.7z" transform="translate(-18.083 -16.598)" style="fill:#fff"/>
            <path data-name="Path 124" d="M191.517 155v10.768H161.24v-44.6h13.374V155z" transform="translate(-26.016 -16.598)" style="fill:#fff"/>
            <path data-name="Path 125" d="M235.083 155v10.768h-33.31v-44.6h32.382v10.768h-19.009v6.435H229.7v9.939h-14.55V155z" transform="translate(-32.556 -16.598)" style="fill:#fff"/>
            <path data-name="Path 126" d="M300.967 165.768v-29.819l-8.916 25.8h-8.3l-8.978-25.8v29.819h-12.316v-44.6h18.388l7.244 21.408 7.306-21.408h17.956v44.6z" transform="translate(-42.347 -16.598)" style="fill:#fff"/>
            <path data-name="Path 127" d="M348.923 166.787a19.87 19.87 0 0 1-8.761-1.816 18.109 18.109 0 0 1-6.222-4.842 20.256 20.256 0 0 1-3.684-6.945 27.426 27.426 0 0 1-1.208-8.124v-23.893h13.374v26.506a10.878 10.878 0 0 0 .4 2.963 8.408 8.408 0 0 0 1.178 2.548 5.712 5.712 0 0 0 2.013 1.784 6.13 6.13 0 0 0 7.863-1.784 8.046 8.046 0 0 0 1.208-2.548 10.943 10.943 0 0 0 .4-2.963v-26.506h13.376v23.893a28.155 28.155 0 0 1-1.146 7.932 20.367 20.367 0 0 1-3.559 6.977 17.931 17.931 0 0 1-6.192 4.937 20.11 20.11 0 0 1-9.04 1.88" transform="translate(-53.092 -16.598)" style="fill:#fff"/>
            <path data-name="Path 128" d="M406.472 139.164a18.577 18.577 0 0 1 5.046 1.784 15.279 15.279 0 0 1 3.87 2.9 12.676 12.676 0 0 1 2.508 3.791 11.409 11.409 0 0 1 .9 4.524 13.816 13.816 0 0 1-1.115 5.479 12.5 12.5 0 0 1-3.467 4.62 17.361 17.361 0 0 1-6.006 3.185 28.6 28.6 0 0 1-8.729 1.179 26.978 26.978 0 0 1-15.046-4.147 21.113 21.113 0 0 1-3.87-3.1q-1.393-1.487-1.827-2l7.616-7.067a19.71 19.71 0 0 0 1.455 1.465 16.962 16.962 0 0 0 2.817 2.071 22.166 22.166 0 0 0 4.056 1.879 14.912 14.912 0 0 0 5.046.829 7.035 7.035 0 0 0 3.994-1.021 3.1 3.1 0 0 0 1.516-2.68 3.2 3.2 0 0 0-.99-2.2 6.546 6.546 0 0 0-3.467-1.564q-.434-.127-1.579-.35t-2.445-.511q-1.3-.286-2.508-.543t-1.7-.382a19.79 19.79 0 0 1-4.737-1.533 13.186 13.186 0 0 1-3.715-2.616 11.181 11.181 0 0 1-2.445-3.766 13.536 13.536 0 0 1-.866-5.043 13.361 13.361 0 0 1 1.3-5.968 12.787 12.787 0 0 1 3.745-4.532 17.451 17.451 0 0 1 5.882-2.872 27.885 27.885 0 0 1 7.708-.989A24.99 24.99 0 0 1 413 123.649a18.574 18.574 0 0 1 3.5 2.739q1.238 1.307 1.486 1.625l-7.554 7.136-1.64-1.307a20.188 20.188 0 0 0-2.539-1.688 19.944 19.944 0 0 0-3.282-1.465 11.868 11.868 0 0 0-3.932-.638 5.58 5.58 0 0 0-3.746 1.02 3.2 3.2 0 0 0-1.146 2.485 3.378 3.378 0 0 0 1.021 2.358 6.439 6.439 0 0 0 3.375 1.593q.371.063 1.486.287t2.384.509q1.267.287 2.446.51t1.609.35" transform="translate(-61.109 -16.437)" style="fill:#fff"/>
            <path data-name="Rectangle 29" transform="translate(361.398 104.569)" style="fill:#fff" d="M0 0h13.374v44.601H0z"/>
            <path data-name="Path 129" d="M451.675 143.369a26.411 26.411 0 0 1 1.579-9.239 21.378 21.378 0 0 1 4.582-7.423 20.914 20.914 0 0 1 7.4-4.938 26.336 26.336 0 0 1 9.968-1.784 23.773 23.773 0 0 1 7.771 1.147 23.416 23.416 0 0 1 5.665 2.772 18.557 18.557 0 0 1 3.777 3.345 15.444 15.444 0 0 1 1.981 2.867l-10.098 6.946a15.627 15.627 0 0 0-1.053-1.784 9.2 9.2 0 0 0-1.8-1.944 10.982 10.982 0 0 0-2.663-1.593 9 9 0 0 0-3.591-.669 8.693 8.693 0 0 0-4.148.988 9.059 9.059 0 0 0-3.1 2.676 12.94 12.94 0 0 0-1.92 3.918 16.04 16.04 0 0 0-.681 4.715 15.718 15.718 0 0 0 .681 4.683 12.574 12.574 0 0 0 1.92 3.855 8.835 8.835 0 0 0 7.243 3.568 9.6 9.6 0 0 0 4.149-.8 9.7 9.7 0 0 0 2.724-1.848 8.954 8.954 0 0 0 1.61-2.1q.557-1.051.743-1.5l10.216 6.69q-.311.511-1.424 2.23a16.691 16.691 0 0 1-3.374 3.6 22.215 22.215 0 0 1-14.644 4.874 26.336 26.336 0 0 1-9.968-1.784 20.637 20.637 0 0 1-11.98-12.265 26.142 26.142 0 0 1-1.579-9.207" transform="translate(-72.878 -16.437)" style="fill:#fff"/>
            <path data-name="Path 130" d="M266.594 33.1a1.584 1.584 0 0 1 2.492-1.339L292.994 48.9a1.658 1.658 0 0 1 0 2.677l-23.908 17.136a1.584 1.584 0 0 1-2.492-1.339z" transform="translate(-43.015 -4.31)" style="fill:#fff"/>
            <path data-name="Path 131" d="M23.158 212.224a10.7 10.7 0 0 1-.653 3.731 9.1 9.1 0 0 1-5 5.272 10.31 10.31 0 0 1-4.162.792 10.338 10.338 0 0 1-4.143-.792A8.925 8.925 0 0 1 4.214 216a10.822 10.822 0 0 1-.653-3.772v-20.051h3.733v18.974a7.384 7.384 0 0 0 1.637 5.161 5.708 5.708 0 0 0 4.428 1.789 5.543 5.543 0 0 0 4.484-1.873 7.617 7.617 0 0 0 1.582-5.077v-18.974h3.733z" transform="translate(-.575 -26.326)" style="fill:#fff"/>
            <path data-name="Path 132" d="M37.783 211.766v9.586H34.05v-29.175h8.828a9.638 9.638 0 0 1 4.171.833 8.144 8.144 0 0 1 2.869 2.209 9.193 9.193 0 0 1 1.657 3.147 12.448 12.448 0 0 1 .54 3.647 12.1 12.1 0 0 1-.577 3.772 9.062 9.062 0 0 1-1.713 3.105 7.949 7.949 0 0 1-2.867 2.1 9.867 9.867 0 0 1-4.04.771zm10.6-9.753a6.736 6.736 0 0 0-.335-2.049 6.2 6.2 0 0 0-1.008-1.924 5.063 5.063 0 0 0-1.717-1.407 5.414 5.414 0 0 0-2.5-.539h-5.04v11.753h5.039a5.33 5.33 0 0 0 2.539-.558 5.417 5.417 0 0 0 1.717-1.407 5.688 5.688 0 0 0 .99-1.883 6.78 6.78 0 0 0 .317-1.987" transform="translate(-5.494 -26.326)" style="fill:#fff"/>
            <path data-name="Path 133" d="M87.023 192.176v3.918h-7.615v25.257h-3.733v-25.257H68.1v-3.918z" transform="translate(-10.988 -26.326)" style="fill:#fff"/>
            <path data-name="Path 134" d="M117.271 206.7a18.241 18.241 0 0 1-.915 5.793 15.162 15.162 0 0 1-2.632 4.855 12.555 12.555 0 0 1-4.181 3.335 13.378 13.378 0 0 1-11.161.021 12.77 12.77 0 0 1-4.2-3.272 14.447 14.447 0 0 1-2.65-4.835 18.7 18.7 0 0 1-.915-5.9 18.356 18.356 0 0 1 .933-5.9 15.212 15.212 0 0 1 2.669-4.877 12.557 12.557 0 0 1 4.2-3.313 13.224 13.224 0 0 1 11.048 0 12.549 12.549 0 0 1 4.2 3.313 15.228 15.228 0 0 1 2.669 4.877 18.379 18.379 0 0 1 .933 5.9m-13.326-11.378a8.432 8.432 0 0 0-4.031.936 9.1 9.1 0 0 0-2.967 2.517 11.5 11.5 0 0 0-1.848 3.619 14.778 14.778 0 0 0 0 8.57 11.225 11.225 0 0 0 1.848 3.6 9.187 9.187 0 0 0 2.967 2.5 9.146 9.146 0 0 0 8.063 0 9.2 9.2 0 0 0 2.967-2.5 10.958 10.958 0 0 0 1.829-3.6 15.2 15.2 0 0 0 0-8.57 11.219 11.219 0 0 0-1.829-3.619 9.109 9.109 0 0 0-2.967-2.517 8.435 8.435 0 0 0-4.031-.936" transform="translate(-14.621 -26.22)" style="fill:#fff"/>
            <path data-name="Path 135" d="M136.439 215.536q.112.126.56.521a7.67 7.67 0 0 0 1.194.833 8.617 8.617 0 0 0 1.829.772 8.213 8.213 0 0 0 2.426.333 5.3 5.3 0 0 0 3.751-1.37 4.8 4.8 0 0 0 1.474-3.695 6.286 6.286 0 0 0-.242-1.639 4.493 4.493 0 0 0-.84-1.64 4.579 4.579 0 0 0-1.642-1.245 6.16 6.16 0 0 0-2.65-.5h-2.128v-3.418h1.791a4.327 4.327 0 0 0 4.779-4.46 5.411 5.411 0 0 0-.28-1.687 4.533 4.533 0 0 0-.84-1.521 4.243 4.243 0 0 0-1.418-1.084 4.675 4.675 0 0 0-2.053-.417 5.934 5.934 0 0 0-2 .312 6.5 6.5 0 0 0-1.512.751 7.131 7.131 0 0 0-1.063.875q-.43.438-.616.646l-2.24-2.917c.1-.139.33-.4.69-.792a8.623 8.623 0 0 1 1.456-1.208 9.881 9.881 0 0 1 2.258-1.1 10.49 10.49 0 0 1 6.812.187 7.229 7.229 0 0 1 4.106 4.376 9.266 9.266 0 0 1 .5 3.043 7.676 7.676 0 0 1-.354 2.354 8.049 8.049 0 0 1-.915 1.959 5.754 5.754 0 0 1-1.288 1.417 4.249 4.249 0 0 1-1.511.771 5.53 5.53 0 0 1 1.68.709 6.31 6.31 0 0 1 1.624 1.439A7.817 7.817 0 0 1 151 210.3a8.205 8.205 0 0 1 .486 2.939 9.992 9.992 0 0 1-.5 3.126 7.745 7.745 0 0 1-4.33 4.772 9.746 9.746 0 0 1-4.05.771 12.965 12.965 0 0 1-3.527-.421 11.023 11.023 0 0 1-2.463-.99 8.317 8.317 0 0 1-1.568-1.117q-.577-.546-.8-.8z" transform="translate(-21.659 -26.22)" style="fill:#fff"/>
            <path data-name="Path 136" d="M183.064 216.142 175 197.094v24.258h-3.733v-29.176h5.42l8.036 18.756 8-18.756h5.346v29.176h-3.734v-24.258l-8.1 19.048z" transform="translate(-27.634 -26.326)" style="fill:#fff"/>
            <path data-name="Path 137" d="M235.174 206.7a18.241 18.241 0 0 1-.915 5.793 15.162 15.162 0 0 1-2.632 4.855 12.556 12.556 0 0 1-4.181 3.335 13.378 13.378 0 0 1-11.161.021 12.77 12.77 0 0 1-4.2-3.272 14.447 14.447 0 0 1-2.65-4.835 18.7 18.7 0 0 1-.915-5.9 18.357 18.357 0 0 1 .933-5.9 15.212 15.212 0 0 1 2.669-4.877 12.557 12.557 0 0 1 4.2-3.313 13.224 13.224 0 0 1 11.048 0 12.55 12.55 0 0 1 4.2 3.313 15.228 15.228 0 0 1 2.669 4.877 18.38 18.38 0 0 1 .933 5.9m-13.326-11.378a8.433 8.433 0 0 0-4.031.936 9.1 9.1 0 0 0-2.967 2.517 11.5 11.5 0 0 0-1.848 3.621 14.777 14.777 0 0 0 0 8.57 11.225 11.225 0 0 0 1.848 3.6 9.187 9.187 0 0 0 2.967 2.5 9.146 9.146 0 0 0 8.063 0 9.2 9.2 0 0 0 2.967-2.5 10.959 10.959 0 0 0 1.829-3.6 15.2 15.2 0 0 0 0-8.57 11.22 11.22 0 0 0-1.829-3.619 9.109 9.109 0 0 0-2.967-2.517 8.435 8.435 0 0 0-4.031-.936" transform="translate(-33.645 -26.22)" style="fill:#fff"/>
            <path data-name="Path 138" d="M265.836 192.176v29.175h-5l-11.459-22.965v22.965h-3.733v-29.175h4.778l11.678 23.382v-23.382z" transform="translate(-39.634 -26.326)" style="fill:#fff"/>
            <path data-name="Path 139" d="M292.206 192.176v3.918h-7.615v25.257h-3.733v-25.257h-7.577v-3.918z" transform="translate(-44.094 -26.326)" style="fill:#fff"/>
            <path data-name="Path 140" d="M319 192.176v29.175h-3.733v-13.212H303.1v13.212h-3.734v-29.175h3.734v12h12.168v-12z" transform="translate(-48.302 -26.326)" style="fill:#fff"/>
            <path data-name="Path 141" d="M328.965 213.451c.1.14.355.458.766.959a10.033 10.033 0 0 0 1.642 1.542 11.713 11.713 0 0 0 2.445 1.417 7.783 7.783 0 0 0 3.173.625 7.563 7.563 0 0 0 4.424-1.165 3.9 3.9 0 0 0 1.661-3.412 3.856 3.856 0 0 0-1.25-2.871 8.118 8.118 0 0 0-3.975-1.789c-.149-.028-.386-.077-.709-.146s-.673-.139-1.046-.208-.735-.146-1.083-.229a8.048 8.048 0 0 0-.858-.167 10.031 10.031 0 0 1-2.65-.936 8.268 8.268 0 0 1-2.165-1.622 7.013 7.013 0 0 1-1.456-2.31 8.133 8.133 0 0 1-.522-3 10.093 10.093 0 0 1 .541-3.288 7.477 7.477 0 0 1 1.7-2.788 8.347 8.347 0 0 1 2.967-1.936 11.654 11.654 0 0 1 4.348-.728 13.385 13.385 0 0 1 4.255.583 11.275 11.275 0 0 1 2.819 1.355 7.639 7.639 0 0 1 1.679 1.521l.8 1.042-2.875 2.959a31.049 31.049 0 0 0-.709-.875 7.543 7.543 0 0 0-3.3-2.23 8.676 8.676 0 0 0-2.93-.438 6.929 6.929 0 0 0-2.482.4 5.036 5.036 0 0 0-1.7 1.042 3.948 3.948 0 0 0-.97 1.417 4 4 0 0 0 .616 4.064 5.06 5.06 0 0 0 3.154 1.667c.2.028.472.084.821.167s.715.16 1.1.229.752.14 1.1.209.635.132.859.187a11.814 11.814 0 0 1 3.434 1.251 8.939 8.939 0 0 1 2.411 1.959 7.758 7.758 0 0 1 1.418 2.459 8.4 8.4 0 0 1 .466 2.793 9.881 9.881 0 0 1-.522 3.147 7.471 7.471 0 0 1-1.717 2.813 8.736 8.736 0 0 1-3.117 2.022 12.852 12.852 0 0 1-4.759.771 12.465 12.465 0 0 1-4.722-.8 13.592 13.592 0 0 1-3.229-1.79 9.543 9.543 0 0 1-1.885-1.846q-.616-.856-.727-1.023z" transform="translate(-52.633 -26.22)" style="fill:#fff"/>
        </g>
        <path data-name="Path 142" d="m26.837 51.107-.913-2.844h-4.8l-.913 2.844H18.57l3.888-11.857h2.194l3.87 11.857zm-3.3-10.172-1.93 5.775h3.835z" transform="translate(10.291 230.18)" style="fill:#fff"/>
        <path data-name="Path 143" d="M39.879 39.24v11.866h-2.115l-4.853-9.338v9.338H31.34V39.24h2.019l4.941 9.5v-9.5z" transform="translate(8.728 230.181)" style="fill:#fff"/>
        <path data-name="Path 144" d="M47.614 39.24a7.149 7.149 0 0 1 2.624.448 5.4 5.4 0 0 1 1.913 1.246 5.258 5.258 0 0 1 1.167 1.878 6.82 6.82 0 0 1 .395 2.352 6.517 6.517 0 0 1-.43 2.431 5.215 5.215 0 0 1-1.211 1.869 5.38 5.38 0 0 1-1.922 1.2 7.218 7.218 0 0 1-2.536.421H44.49V39.24zm4.45 5.942a5.365 5.365 0 0 0-.263-1.7 3.9 3.9 0 0 0-.79-1.378 3.725 3.725 0 0 0-1.325-.93 4.678 4.678 0 0 0-1.852-.342H46.07V49.5h1.764a4.648 4.648 0 0 0 1.852-.342A3.782 3.782 0 0 0 51 48.236a3.938 3.938 0 0 0 .8-1.369 5.179 5.179 0 0 0 .263-1.685" transform="translate(7.119 230.181)" style="fill:#fff"/>
        <path data-name="Path 145" d="m69.027 51.107-.913-2.844h-4.8l-.914 2.844h-1.64l3.888-11.857h2.194l3.87 11.857zm-3.3-10.172L63.8 46.71h3.835z" transform="translate(5.128 230.18)" style="fill:#fff"/>
        <path data-name="Path 146" d="M86.785 42.2a5.876 5.876 0 0 0-.29-.386 2.941 2.941 0 0 0-.606-.562 4.106 4.106 0 0 0-.983-.509 3.968 3.968 0 0 0-1.422-.219 3.72 3.72 0 0 0-1.711.377 3.877 3.877 0 0 0-1.263 1.019 4.548 4.548 0 0 0-.772 1.474 5.765 5.765 0 0 0-.263 1.746 5.456 5.456 0 0 0 .272 1.738 4.393 4.393 0 0 0 .781 1.457 3.911 3.911 0 0 0 1.255 1.009 3.658 3.658 0 0 0 1.7.377 4.086 4.086 0 0 0 1.431-.219 3.889 3.889 0 0 0 .992-.527 3.3 3.3 0 0 0 .641-.606c.158-.2.272-.36.351-.456l1.264 1c-.053.079-.176.246-.36.5a4.09 4.09 0 0 1-.834.807 5.965 5.965 0 0 1-1.4.764 5.57 5.57 0 0 1-2.071.334 5.473 5.473 0 0 1-2.352-.491 5.251 5.251 0 0 1-1.773-1.334 5.867 5.867 0 0 1-1.123-1.966 7.45 7.45 0 0 1-.386-2.4 7.317 7.317 0 0 1 .395-2.431 5.927 5.927 0 0 1 1.132-1.975 5.339 5.339 0 0 1 1.773-1.334 5.446 5.446 0 0 1 2.334-.483 5.921 5.921 0 0 1 1.922.281 6.257 6.257 0 0 1 1.352.658 4.73 4.73 0 0 1 .86.746c.211.246.351.43.43.544z" transform="translate(3.036 230.222)" style="fill:#fff"/>
        <path data-name="Path 147" d="M99.881 39.24v11.866H98.3v-5.372h-5.15v5.371h-1.58V39.24h1.58v4.88h5.15v-4.88z" transform="translate(1.358 230.181)" style="fill:#fff"/>
        <path data-name="Path 148" d="m110.727 51.107-.913-2.844h-4.8l-.913 2.844h-1.641l3.888-11.857h2.194l3.87 11.857zm-3.3-10.172L105.5 46.71h3.835z" transform="translate(.025 230.18)" style="fill:#fff"/>
        <path data-name="Path 149" d="M123.769 39.24v11.866h-2.115l-4.845-9.338v9.338h-1.58V39.24h2.019l4.941 9.5v-9.5z" transform="translate(-1.538 230.181)" style="fill:#fff"/>
        <path data-name="Path 150" d="M136.605 42.2a5.876 5.876 0 0 0-.29-.386 2.941 2.941 0 0 0-.606-.562 4.106 4.106 0 0 0-.983-.509 3.968 3.968 0 0 0-1.422-.219 3.72 3.72 0 0 0-1.711.377 3.876 3.876 0 0 0-1.264 1.018 4.547 4.547 0 0 0-.772 1.474 5.764 5.764 0 0 0-.263 1.746 5.456 5.456 0 0 0 .272 1.738 4.393 4.393 0 0 0 .781 1.457 3.912 3.912 0 0 0 1.255 1.009 3.658 3.658 0 0 0 1.7.377 4.053 4.053 0 0 0 1.431-.219 3.89 3.89 0 0 0 .992-.527 3.3 3.3 0 0 0 .641-.606c.158-.2.272-.36.351-.456l1.264 1c-.053.079-.176.246-.36.5a4.09 4.09 0 0 1-.834.807 5.663 5.663 0 0 1-1.4.764 5.754 5.754 0 0 1-2.071.334 5.473 5.473 0 0 1-2.352-.491 5.251 5.251 0 0 1-1.773-1.334 5.868 5.868 0 0 1-1.123-1.966 7.45 7.45 0 0 1-.386-2.4 7.318 7.318 0 0 1 .395-2.431 5.928 5.928 0 0 1 1.132-1.975 5.339 5.339 0 0 1 1.773-1.334 5.446 5.446 0 0 1 2.335-.483 6.015 6.015 0 0 1 1.931.281 6.257 6.257 0 0 1 1.352.658 4.73 4.73 0 0 1 .86.746 4.972 4.972 0 0 1 .421.544z" transform="translate(-3.061 230.222)" style="fill:#fff"/>
        <path data-name="Path 151" d="M148.587 51.106h-7.2V39.24h6.9v1.6h-5.317v3.3h4.748v1.6h-4.748v3.774h5.617z" transform="translate(-4.739 230.181)" style="fill:#fff"/>
        <path data-name="Path 152" d="M163.534 39.24v1.6h-3.221v10.266h-1.58V40.837h-3.2v-1.6z" transform="translate(-6.469 230.181)" style="fill:#fff"/>
        <path data-name="Path 153" d="M176.449 45.151a7.222 7.222 0 0 1-.386 2.352 6.066 6.066 0 0 1-1.115 1.975 5.265 5.265 0 0 1-1.764 1.352 5.4 5.4 0 0 1-2.37.5 5.472 5.472 0 0 1-2.352-.491 5.251 5.251 0 0 1-1.772-1.339 5.868 5.868 0 0 1-1.123-1.966 7.412 7.412 0 0 1-.386-2.4 7.148 7.148 0 0 1 .395-2.4 6.058 6.058 0 0 1 1.132-1.983 5.386 5.386 0 0 1 1.773-1.352 5.79 5.79 0 0 1 4.669 0 5.187 5.187 0 0 1 1.773 1.352 6.058 6.058 0 0 1 1.132 1.983 7.236 7.236 0 0 1 .395 2.4m-5.634-4.625a3.632 3.632 0 0 0-2.958 1.4 4.567 4.567 0 0 0-.781 1.474 5.728 5.728 0 0 0-.272 1.746 5.418 5.418 0 0 0 .272 1.738 4.523 4.523 0 0 0 .781 1.466 3.937 3.937 0 0 0 1.255 1.018 4.03 4.03 0 0 0 3.405 0 3.822 3.822 0 0 0 1.255-1.018 4.417 4.417 0 0 0 .772-1.466 5.9 5.9 0 0 0 0-3.484 4.548 4.548 0 0 0-.772-1.474 3.848 3.848 0 0 0-1.255-1.027 3.658 3.658 0 0 0-1.7-.377" transform="translate(-7.65 230.221)" style="fill:#fff"/>
        <path data-name="Path 154" d="m198.366 39.24-2.7 11.865h-1.94l-2.466-8.794-2.449 8.794h-1.957L184.14 39.24h1.589l2.168 9.443 2.633-9.443h1.492l2.615 9.443 2.185-9.443z" transform="translate(-9.97 230.181)" style="fill:#fff"/>
        <path data-name="Rectangle 31" transform="translate(189.976 269.422)" style="fill:#fff" d="M0 0h1.58v11.857H0z"/>
        <path data-name="Path 155" d="M215.909 39.24v11.866h-2.115l-4.853-9.338v9.338h-1.571V39.24h2.019l4.941 9.5v-9.5z" transform="translate(-12.813 230.181)" style="fill:#fff"/>
        <path data-name="Path 156" d="M233.3 48.236v2.87h-8.5V39.24h8.258v2.87h-4.844v1.711h3.7v2.642h-3.7v1.773z" transform="translate(-14.946 230.181)" style="fill:#fff"/>
        <path data-name="Path 157" d="M241.734 39.24a4.757 4.757 0 0 1 1.632.272 3.6 3.6 0 0 1 1.325.807 3.835 3.835 0 0 1 .9 1.343 4.8 4.8 0 0 1 .325 1.843 5.1 5.1 0 0 1-.316 1.861 3.78 3.78 0 0 1-.869 1.343 3.726 3.726 0 0 1-1.325.825 4.889 4.889 0 0 1-1.667.281h-2.15V51.1h-3.419V39.24zm-.667 5.713a1.332 1.332 0 0 0 1.062-.421 1.532 1.532 0 0 0 .009-1.983 1.321 1.321 0 0 0-1.071-.439h-1.483v2.844z" transform="translate(-16.338 230.181)" style="fill:#fff"/>
        <path data-name="Rectangle 32" transform="translate(230.978 269.422)" style="fill:#fff" d="M0 0h3.414v11.857H0z"/>
        <path data-name="Path 158" d="M254.47 45.152a7.218 7.218 0 0 1 .4-2.457 5.859 5.859 0 0 1 1.167-1.975 5.3 5.3 0 0 1 1.887-1.316 6.483 6.483 0 0 1 2.545-.474 5.749 5.749 0 0 1 3.432 1.044 5.056 5.056 0 0 1 .965.886 4.2 4.2 0 0 1 .509.764l-2.571 1.843a4.757 4.757 0 0 0-.263-.474 2.476 2.476 0 0 0-.456-.518 2.6 2.6 0 0 0-.676-.421 2.355 2.355 0 0 0-1.975.088 2.358 2.358 0 0 0-.79.711 3.478 3.478 0 0 0-.491 1.044 4.516 4.516 0 0 0-.176 1.255 4.408 4.408 0 0 0 .176 1.246 3.477 3.477 0 0 0 .491 1.027 2.23 2.23 0 0 0 1.852.948 2.345 2.345 0 0 0 1.053-.211 2.5 2.5 0 0 0 .693-.491 2.358 2.358 0 0 0 .412-.562c.1-.184.158-.316.193-.395l2.607 1.782c-.053.088-.176.29-.36.6a4.369 4.369 0 0 1-.86.957 5.841 5.841 0 0 1-1.492.9 5.673 5.673 0 0 1-2.238.395 6.482 6.482 0 0 1-2.545-.474 5.389 5.389 0 0 1-1.887-1.308 5.7 5.7 0 0 1-1.167-1.957 6.423 6.423 0 0 1-.439-2.449" transform="translate(-18.577 230.22)" style="fill:#fff"/>
        <path data-name="Path 159" d="M278.525 44.041a4.607 4.607 0 0 1 1.29.474 3.759 3.759 0 0 1 .983.772 3.464 3.464 0 0 1 .641 1.009 3.188 3.188 0 0 1 .228 1.2 3.91 3.91 0 0 1-.281 1.457 3.333 3.333 0 0 1-.886 1.229 4.555 4.555 0 0 1-1.527.851 6.963 6.963 0 0 1-2.229.316 6.865 6.865 0 0 1-2.256-.333 7.368 7.368 0 0 1-1.58-.764 5.554 5.554 0 0 1-.983-.825 16.285 16.285 0 0 1-.465-.527l1.94-1.878a4.071 4.071 0 0 0 .369.386 4.37 4.37 0 0 0 .72.553 5.992 5.992 0 0 0 1.036.5 3.621 3.621 0 0 0 1.29.219 1.705 1.705 0 0 0 1.018-.272.847.847 0 0 0 .386-.711.9.9 0 0 0-.254-.588 1.638 1.638 0 0 0-.886-.412c-.07-.026-.211-.053-.4-.1s-.4-.088-.623-.14-.43-.1-.641-.14-.351-.079-.43-.105a5.168 5.168 0 0 1-1.211-.4 3.567 3.567 0 0 1-.948-.693 2.924 2.924 0 0 1-.623-1 4.068 4.068 0 0 1 .114-2.931 3.323 3.323 0 0 1 .957-1.2 4.323 4.323 0 0 1 1.5-.764 6.832 6.832 0 0 1 1.966-.263 6.093 6.093 0 0 1 2.027.3 6.683 6.683 0 0 1 1.439.676 4.884 4.884 0 0 1 .9.728c.211.228.333.377.377.43l-1.922 1.9c-.1-.079-.237-.193-.421-.351a5.938 5.938 0 0 0-.649-.448 4.884 4.884 0 0 0-.834-.386 2.885 2.885 0 0 0-1-.167 1.369 1.369 0 0 0-.957.272.881.881 0 0 0-.026 1.281 1.581 1.581 0 0 0 .86.421c.061.009.193.035.377.079s.395.088.606.132.421.1.623.132a2.114 2.114 0 0 1 .395.088" transform="translate(-20.656 230.216)" style="fill:#fff"/>
        <path data-name="Path 160" d="M289.6 51.379a4.887 4.887 0 0 1-2.238-.483 4.681 4.681 0 0 1-1.589-1.29 5.389 5.389 0 0 1-.939-1.843 7.686 7.686 0 0 1-.307-2.159V39.25h3.414v7.05a2.957 2.957 0 0 0 .105.79 2.258 2.258 0 0 0 .3.676 1.643 1.643 0 0 0 .509.474 1.444 1.444 0 0 0 .746.176 1.536 1.536 0 0 0 .746-.176 1.582 1.582 0 0 0 .518-.474 2.158 2.158 0 0 0 .307-.676 2.957 2.957 0 0 0 .105-.79v-7.05h3.414v6.35a7.815 7.815 0 0 1-.29 2.106 5.522 5.522 0 0 1-.9 1.852 4.634 4.634 0 0 1-1.58 1.316 5.039 5.039 0 0 1-2.317.5" transform="translate(-22.256 230.18)" style="fill:#fff"/>
        <path data-name="Path 161" d="M308.261 51.106v-7.934l-2.273 6.863h-2.115l-2.291-6.863v7.934h-3.142V39.24h4.687l1.852 5.7 1.861-5.7h4.581v11.866z" transform="translate(-23.958 230.181)" style="fill:#fff"/>
        <path data-name="Path 162" d="M325.391 51.106v-7.934l-2.273 6.863H321l-2.291-6.863v7.934h-3.139V39.24h4.687l1.843 5.7 1.869-5.7h4.573v11.866z" transform="translate(-26.054 230.181)" style="fill:#fff"/>
        <path data-name="Path 163" d="M341.185 48.236v2.87h-8.5V39.24h8.259v2.87H336.1v1.711h3.712v2.642H336.1v1.773z" transform="translate(-28.149 230.181)" style="fill:#fff"/>
        <path data-name="Path 164" d="M351.76 46.393q.158.105.342.211a1.9 1.9 0 0 1 .413.377 3.8 3.8 0 0 1 .491.781 13.152 13.152 0 0 1 .588 1.4c.018.053.07.184.149.395s.158.43.246.649c.1.272.2.562.316.878h-3.66c-.105-.281-.2-.544-.3-.8-.088-.237-.167-.456-.237-.649s-.123-.342-.158-.43c-.061-.193-.132-.377-.2-.57a1.824 1.824 0 0 0-.29-.509 1.4 1.4 0 0 0-.448-.369 1.454 1.454 0 0 0-.693-.14h-.819V51.1h-3.41V39.24h5.152a5.629 5.629 0 0 1 2 .325 4.242 4.242 0 0 1 1.431.851 3.434 3.434 0 0 1 .851 1.246 4.119 4.119 0 0 1 .281 1.51 3.7 3.7 0 0 1-.254 1.439 3.473 3.473 0 0 1-.6.974 2.723 2.723 0 0 1-.667.57 4.107 4.107 0 0 1-.527.237m-2.8-1.439a1.356 1.356 0 0 0 1.062-.421 1.5 1.5 0 0 0 .009-1.983 1.326 1.326 0 0 0-1.062-.439h-1.483v2.844z" transform="translate(-29.544 230.181)" style="fill:#fff"/>
        <path data-name="Path 165" d="M366.864 39.24a4.756 4.756 0 0 1 1.632.272 3.6 3.6 0 0 1 1.325.807 3.833 3.833 0 0 1 .9 1.343 4.8 4.8 0 0 1 .325 1.843 5.1 5.1 0 0 1-.316 1.861 3.78 3.78 0 0 1-.869 1.343 3.725 3.725 0 0 1-1.325.825 4.889 4.889 0 0 1-1.667.281h-2.15V51.1H361.3V39.24zm-.667 5.713a1.331 1.331 0 0 0 1.062-.421 1.532 1.532 0 0 0 .009-1.983 1.321 1.321 0 0 0-1.071-.439h-1.483v2.844z" transform="translate(-31.65 230.181)" style="fill:#fff"/>
        <path data-name="Path 166" d="M381.51 46.393q.158.105.342.211a1.906 1.906 0 0 1 .412.377 3.8 3.8 0 0 1 .491.781 13.152 13.152 0 0 1 .588 1.4c.018.053.07.184.149.395s.158.43.246.649c.1.272.2.562.316.878H380.4c-.105-.281-.2-.544-.3-.8-.088-.237-.167-.456-.237-.649s-.123-.342-.158-.43c-.061-.193-.132-.377-.2-.57a1.825 1.825 0 0 0-.29-.509 1.4 1.4 0 0 0-.448-.369 1.454 1.454 0 0 0-.693-.14h-.816V51.1h-3.418V39.24h5.152a5.63 5.63 0 0 1 2 .325 4.243 4.243 0 0 1 1.431.851 3.434 3.434 0 0 1 .851 1.246 3.944 3.944 0 0 1 .281 1.51 3.553 3.553 0 0 1-.842 2.413 2.6 2.6 0 0 1-.676.57 3.618 3.618 0 0 1-.527.237m-2.791-1.439a1.356 1.356 0 0 0 1.062-.421 1.5 1.5 0 0 0 .009-1.983 1.326 1.326 0 0 0-1.062-.439h-1.483v2.844z" transform="translate(-33.185 230.181)" style="fill:#fff"/>
        <path data-name="Rectangle 33" transform="translate(351.819 269.422)" style="fill:#fff" d="M0 0h3.414v11.857H0z"/>
        <path data-name="Path 167" d="M401.56 51.106h-9.32v-3.687l4.739-5.31h-4.406V39.24h8.592v3.4l-4.976 5.6h5.371z" transform="translate(-35.437 230.181)" style="fill:#fff"/>
        <path data-name="Path 168" d="M413.155 48.236v2.87h-8.5V39.24h8.259v2.87h-4.844v1.711h3.7v2.642h-3.7v1.773z" transform="translate(-36.956 230.181)" style="fill:#fff"/>
        <path data-name="Path 169" d="M422.385 44.041a4.609 4.609 0 0 1 1.29.474 3.758 3.758 0 0 1 .983.772 3.459 3.459 0 0 1 .642 1.013 3.186 3.186 0 0 1 .228 1.2 3.912 3.912 0 0 1-.281 1.457 3.334 3.334 0 0 1-.886 1.229 4.556 4.556 0 0 1-1.527.851 7.905 7.905 0 0 1-4.485-.018 7.366 7.366 0 0 1-1.58-.764 5.55 5.55 0 0 1-.983-.825 16.285 16.285 0 0 1-.465-.527l1.94-1.878a4.079 4.079 0 0 0 .369.386 4.376 4.376 0 0 0 .72.553 5.7 5.7 0 0 0 1.036.5 3.622 3.622 0 0 0 1.29.219 1.705 1.705 0 0 0 1.018-.272.847.847 0 0 0 .386-.711.9.9 0 0 0-.254-.588 1.638 1.638 0 0 0-.886-.412c-.07-.026-.211-.053-.4-.1s-.4-.088-.623-.14-.43-.1-.641-.14-.351-.079-.43-.105a5.168 5.168 0 0 1-1.211-.4 3.568 3.568 0 0 1-.948-.693 2.924 2.924 0 0 1-.623-1 4.067 4.067 0 0 1 .114-2.931 3.323 3.323 0 0 1 .957-1.2 4.323 4.323 0 0 1 1.5-.764 6.833 6.833 0 0 1 1.966-.263 6.093 6.093 0 0 1 2.027.3 6.68 6.68 0 0 1 1.439.676 4.88 4.88 0 0 1 .9.728c.211.228.334.377.377.43l-1.931 1.9c-.1-.079-.237-.193-.421-.351a5.944 5.944 0 0 0-.649-.448 4.891 4.891 0 0 0-.834-.386 2.851 2.851 0 0 0-1-.167 1.37 1.37 0 0 0-.957.272.881.881 0 0 0-.026 1.281 1.581 1.581 0 0 0 .86.421c.061.009.193.035.377.079s.395.088.606.132.421.1.623.132a2.079 2.079 0 0 1 .4.088" transform="translate(-38.261 230.216)" style="fill:#fff"/>
        <path data-name="Path 170" d="M430.355 51.29a1.5 1.5 0 0 1-.623-.132 1.742 1.742 0 0 1-.518-.351 1.637 1.637 0 0 1-.351-.518 1.518 1.518 0 0 1-.123-.623 1.583 1.583 0 0 1 .474-1.15 1.636 1.636 0 0 1 .518-.351 1.5 1.5 0 0 1 .623-.132 1.569 1.569 0 0 1 .632.132 1.544 1.544 0 0 1 .518.351 1.638 1.638 0 0 1 .351.518 1.531 1.531 0 0 1 .123.632 1.712 1.712 0 0 1-.123.623 1.66 1.66 0 0 1-.869.869 1.509 1.509 0 0 1-.632.132m1.553-3.932h-3.063V39.24h3.063z" transform="translate(-39.903 230.181)" style="fill:#fff"/>
        <g data-name="Apple Music">
            <g data-name="Group 101" style="clip-path:url(#xcg3y2tgxb)" transform="translate(149.208)">
                <path data-name="Path 58" d="M25.268 4.685A6.6 6.6 0 0 0 26.773 0a6.478 6.478 0 0 0-4.3 2.236 6.175 6.175 0 0 0-1.541 4.5 5.4 5.4 0 0 0 4.334-2.054" transform="translate(-9.166)" style="fill:#fff"/>
                <path data-name="Path 59" d="M17.588 12.508c-2.394-.143-4.429 1.366-5.572 1.366s-2.894-1.294-4.788-1.259a7.055 7.055 0 0 0-6 3.664c-2.572 4.456-.679 11.066 1.823 14.7 1.215 1.8 2.679 3.773 4.608 3.7 1.822-.072 2.536-1.186 4.751-1.186s2.857 1.186 4.787 1.151c2-.036 3.251-1.8 4.466-3.594a15.971 15.971 0 0 0 2-4.132 6.52 6.52 0 0 1-3.893-5.929 6.653 6.653 0 0 1 3.143-5.569 6.831 6.831 0 0 0-5.323-2.909" transform="translate(0 -5.445)" style="fill:#fff"/>
                <path data-name="Path 60" d="M73.865 30.593V10.758h-.13l-8.083 19.835h-3.085l-8.1-19.836h-.13v19.836h-3.79V3.641h4.812l8.677 21.479h.149l8.658-21.479h4.83v26.952z" transform="translate(-22.168 -1.586)" style="fill:#fff"/>
                <path data-name="Path 61" d="M123.03 36.231h-3.846v-3.325h-.093a6.127 6.127 0 0 1-6.058 3.679c-4.255 0-6.856-2.783-6.856-7.284V16.582h4.014v11.935c0 2.988 1.413 4.595 4.181 4.595 2.9 0 4.646-2.017 4.646-5.08v-11.45h4.013z" transform="translate(-46.567 -7.224)" style="fill:#fff"/>
                <path data-name="Path 62" d="M149.5 15.953c4.553 0 7.507 2.54 7.638 6.164h-3.773c-.223-1.905-1.616-3.1-3.865-3.1-2.174 0-3.623 1.065-3.623 2.634 0 1.232.892 2.073 3.01 2.559l3.177.729c4 .934 5.519 2.5 5.519 5.341 0 3.586-3.326 6.052-7.934 6.052-4.887 0-7.823-2.41-8.194-6.145h3.977c.372 2.055 1.765 3.063 4.218 3.063 2.415 0 3.9-1.008 3.9-2.615 0-1.27-.724-2.017-2.862-2.5l-3.177-.747c-3.717-.859-5.556-2.652-5.556-5.51 0-3.511 3.048-5.921 7.544-5.921" transform="translate(-62.041 -6.95)" style="fill:#fff"/>
                <path data-name="Path 63" d="M175.147 5.594a2.314 2.314 0 1 1 2.323 2.316 2.313 2.313 0 0 1-2.323-2.316m.316 5.192h4.013v19.649h-4.013z" transform="translate(-76.816 -1.428)" style="fill:#fff"/>
                <path data-name="Path 64" d="M202.24 23.07a4.441 4.441 0 0 0-4.59-3.754c-3.1 0-5.147 2.6-5.147 6.818 0 4.314 2.063 6.817 5.185 6.817a4.3 4.3 0 0 0 4.552-3.642h3.865c-.428 4.183-3.754 7.023-8.455 7.023-5.593 0-9.235-3.848-9.235-10.2 0-6.239 3.642-10.179 9.2-10.179 5.036 0 8.1 3.25 8.454 7.116z" transform="translate(-82.636 -6.951)" style="fill:#fff"/>
            </g>
        </g>
    </g>
</svg>
